<svg width="93" height="93" viewBox="0 0 93 93" fill="none" xmlns="http://www.w3.org/2000/svg">
<circle cx="46.5" cy="46.5" r="46.5" fill="#D9D9D9"/>
<path d="M62.5312 67.875H51.5187C53.3684 66.223 55.113 64.4568 56.7422 62.5869C62.8541 55.5577 66.0938 48.1477 66.0938 41.1562C66.0938 35.9597 64.0294 30.9759 60.3549 27.3014C56.6803 23.6268 51.6966 21.5625 46.5 21.5625C41.3034 21.5625 36.3197 23.6268 32.6451 27.3014C28.9706 30.9759 26.9063 35.9597 26.9062 41.1562C26.9063 48.1477 30.137 55.5577 36.2578 62.5869C37.887 64.4568 39.6316 66.223 41.4813 67.875H30.4688C29.9963 67.875 29.5433 68.0627 29.2092 68.3967C28.8752 68.7308 28.6875 69.1838 28.6875 69.6562C28.6875 70.1287 28.8752 70.5817 29.2092 70.9158C29.5433 71.2498 29.9963 71.4375 30.4688 71.4375H62.5312C63.0037 71.4375 63.4567 71.2498 63.7908 70.9158C64.1248 70.5817 64.3125 70.1287 64.3125 69.6562C64.3125 69.1838 64.1248 68.7308 63.7908 68.3967C63.4567 68.0627 63.0037 67.875 62.5312 67.875ZM30.4688 41.1562C30.4688 36.9045 32.1578 32.8269 35.1642 29.8204C38.1706 26.814 42.2482 25.125 46.5 25.125C50.7518 25.125 54.8294 26.814 57.8358 29.8204C60.8422 32.8269 62.5312 36.9045 62.5312 41.1562C62.5312 53.8989 50.1805 64.5352 46.5 67.4297C42.8195 64.5352 30.4688 53.8989 30.4688 41.1562ZM55.4062 41.1562C55.4062 39.3948 54.8839 37.6728 53.9053 36.2082C52.9266 34.7436 51.5357 33.602 49.9083 32.9279C48.2809 32.2539 46.4901 32.0775 44.7625 32.4211C43.0348 32.7648 41.4479 33.613 40.2023 34.8586C38.9568 36.1041 38.1085 37.6911 37.7649 39.4187C37.4212 41.1464 37.5976 42.9371 38.2717 44.5645C38.9458 46.1919 40.0873 47.5829 41.552 48.5615C43.0166 49.5402 44.7385 50.0625 46.5 50.0625C48.8621 50.0625 51.1274 49.1242 52.7977 47.4539C54.4679 45.7837 55.4062 43.5183 55.4062 41.1562ZM41.1562 41.1562C41.1562 40.0994 41.4697 39.0662 42.0568 38.1874C42.644 37.3086 43.4786 36.6237 44.455 36.2193C45.4315 35.8148 46.5059 35.709 47.5425 35.9152C48.5791 36.1214 49.5313 36.6303 50.2786 37.3776C51.0259 38.125 51.5349 39.0772 51.7411 40.1137C51.9473 41.1503 51.8414 42.2248 51.437 43.2012C51.0325 44.1777 50.3476 45.0122 49.4688 45.5994C48.5901 46.1866 47.5569 46.5 46.5 46.5C45.0827 46.5 43.7235 45.937 42.7214 44.9349C41.7192 43.9327 41.1562 42.5735 41.1562 41.1562Z" fill="black"/>
</svg>
