<svg width="57" height="57" viewBox="0 0 57 57" fill="none" xmlns="http://www.w3.org/2000/svg">
<path d="M44.5312 49.875H33.5187C35.3684 48.223 37.113 46.4568 38.7422 44.5869C44.8541 37.5577 48.0938 30.1477 48.0938 23.1562C48.0938 17.9597 46.0294 12.9759 42.3549 9.30138C38.6803 5.62684 33.6966 3.5625 28.5 3.5625C23.3034 3.5625 18.3197 5.62684 14.6451 9.30138C10.9706 12.9759 8.90625 17.9597 8.90625 23.1562C8.90625 30.1477 12.137 37.5577 18.2578 44.5869C19.887 46.4568 21.6316 48.223 23.4813 49.875H12.4688C11.9963 49.875 11.5433 50.0627 11.2092 50.3967C10.8752 50.7308 10.6875 51.1838 10.6875 51.6562C10.6875 52.1287 10.8752 52.5817 11.2092 52.9158C11.5433 53.2498 11.9963 53.4375 12.4688 53.4375H44.5312C45.0037 53.4375 45.4567 53.2498 45.7908 52.9158C46.1248 52.5817 46.3125 52.1287 46.3125 51.6562C46.3125 51.1838 46.1248 50.7308 45.7908 50.3967C45.4567 50.0627 45.0037 49.875 44.5312 49.875ZM12.4688 23.1562C12.4688 18.9045 14.1578 14.8269 17.1642 11.8204C20.1706 8.814 24.2482 7.125 28.5 7.125C32.7518 7.125 36.8294 8.814 39.8358 11.8204C42.8422 14.8269 44.5312 18.9045 44.5312 23.1562C44.5312 35.8989 32.1805 46.5352 28.5 49.4297C24.8195 46.5352 12.4688 35.8989 12.4688 23.1562ZM37.4062 23.1562C37.4062 21.3948 36.8839 19.6728 35.9053 18.2082C34.9266 16.7436 33.5357 15.602 31.9083 14.9279C30.2809 14.2539 28.4901 14.0775 26.7625 14.4211C25.0348 14.7648 23.4479 15.613 22.2023 16.8586C20.9568 18.1041 20.1085 19.6911 19.7649 21.4187C19.4212 23.1464 19.5976 24.9371 20.2717 26.5645C20.9458 28.1919 22.0873 29.5829 23.552 30.5615C25.0166 31.5402 26.7385 32.0625 28.5 32.0625C30.8621 32.0625 33.1274 31.1242 34.7977 29.4539C36.4679 27.7837 37.4062 25.5183 37.4062 23.1562ZM23.1562 23.1562C23.1562 22.0994 23.4697 21.0662 24.0568 20.1874C24.644 19.3086 25.4786 18.6237 26.455 18.2193C27.4315 17.8148 28.5059 17.709 29.5425 17.9152C30.5791 18.1214 31.5313 18.6303 32.2786 19.3776C33.0259 20.125 33.5349 21.0772 33.7411 22.1137C33.9473 23.1503 33.8414 24.2248 33.437 25.2012C33.0325 26.1777 32.3476 27.0122 31.4688 27.5994C30.5901 28.1866 29.5569 28.5 28.5 28.5C27.0828 28.5 25.7235 27.937 24.7214 26.9349C23.7192 25.9327 23.1562 24.5735 23.1562 23.1562Z" fill="black"/>
</svg>
